<svg xmlns="http://www.w3.org/2000/svg" viewBox="0 0 512 512"><path d="M512 206a57.875 57.875 0 0 0-14.563-38.398 56.659 56.659 0 0 0-8.038-7.487c4.851-8.455 7.535-18.124 7.535-28.115 0-21.677-12.255-40.567-30.247-50.204C470.13 74.592 472 66.687 472 58.571 472 24.633 447.938 0 414.786 0H219c-11.046 0-20 8.954-20 20s8.954 20 20 20h195.786C430.322 40 432 52.987 432 58.571c0 8.252-6.97 12.739-9.105 13.917C411.675 78.677 410 87.569 410 92.318 410 105.037 420.981 115 435 115h4.511c9.607 0 17.423 7.626 17.423 17 0 5.966-3.324 11.587-8.674 14.668-.339.195-.654.363-.94.517-8.838 4.774-13.319 11.634-13.319 20.39 0 7.547 5.038 20.593 23.92 21.612C465.552 189.6 472 197.299 472 206c0 7.672-5.422 14.609-12.892 16.493C447.081 225.527 439 234.974 439 246c0 5.459 2.013 13.362 11.6 20.014 4.634 3.215 7.4 8.443 7.4 13.986 0 9.374-7.626 17-17 17H309.426c-30.47 0-64.184 21.642-65.52 56.607l-.015.764c0 12.024 8.777 30.694 30.327 73.598 3.268 6.506 6.367 12.677 9.25 18.526.507 1.777.763 3.624.763 5.505 0 11.028-8.972 20-20 20-4.982 0-9.673-1.802-13.345-5.101l-10.091-14.143-100.363-156.281A59.65 59.65 0 0 0 150 264V60c0-33.084-26.916-60-60-60H60C26.916 0 0 26.916 0 60v204c0 33.084 26.916 60 60 60h30a59.77 59.77 0 0 0 18.663-2.971l98.74 153.753 12.888 18.104 1.093 1.114c11.377 11.607 26.594 18 42.848 18 33.084 0 60-26.916 60-60a59.91 59.91 0 0 0-3.244-19.495l-.409-1.192-.557-1.132c-3.143-6.397-6.502-13.085-10.059-20.166-8.962-17.841-23.756-47.296-25.975-56.153C285.43 343.38 299.444 337 309.426 337H441c31.43 0 57-25.57 57-57a56.827 56.827 0 0 0-7.982-29.021C503.571 240.431 512 224.026 512 206zm-402 58c0 11.028-8.972 20-20 20H60c-11.028 0-20-8.972-20-20V60c0-11.028 8.972-20 20-20h30c11.028 0 20 8.972 20 20v204z"/></svg>