<svg version="1" xmlns="http://www.w3.org/2000/svg" width="972" height="1110" viewBox="0 0 9720 11100"><path d="M0 10410v-691l62 3 63 3 296 508 297 507 294-507 293-508 63-3 62-3v1381h-140l-2-546-3-547-269 462c-268 461-268 461-301 461s-33-1-302-459l-268-458-3 543-2 544H0v-690zM1774 10963c35-76 177-387 316-691l253-553 75 3 74 3 308 672c169 369 310 678 313 687 6 14-4 16-71 16h-78l-81-182-82-183-384-3-385-2-57 127c-32 71-69 154-83 186l-25 57h-156l63-137zm963-365c-21-55-321-718-323-715-4 4-324 718-324 723 0 2 147 4 326 4 257 0 325-3 321-12zM3390 10409v-691l343 4c294 4 350 7 397 22 203 66 314 190 340 377 29 211-61 390-241 475-36 17-58 33-55 41 3 7 75 111 161 231 85 121 155 222 155 226 0 3-35 6-77 6h-78l-155-220-155-220h-485v440h-150v-691zm662 110c120-25 207-90 251-188 17-37 22-65 22-141 0-84-4-102-28-152-32-66-80-112-152-144-80-37-141-44-381-44h-224v680h230c130 0 252-5 282-11zM5180 10858v-241l-227-371c-125-204-248-406-275-449l-49-78 82 3 82 3 221 361c122 198 228 370 236 382 14 21 25 6 250-363l234-385h148l-25 43c-14 23-138 226-276 452l-251 409v476h-150v-242zM6120 10410v-690h150v1250h770v130h-920v-690zM7330 10410v-690h950v130h-800v480l358 2 357 3 3 63 3 62h-721v510h830v130h-980v-690zM8750 10749c143-193 260-354 260-359 0-4-102-146-226-316-124-169-233-318-241-331l-15-23h168l64 88c36 48 129 174 208 280l143 193 206-280 206-281h79c59 0 77 3 72 12-4 7-113 156-242 332-216 294-234 321-222 340 11 18 418 572 488 664l24 32-88-1h-89l-219-301-220-301-23 29c-12 16-112 151-220 301l-198 272h-87l-87 1 259-351zM4370 8814c-533-53-1088-212-1550-444C1774 7845 969 6918 601 5815c-299-897-301-1891-6-2780 214-644 561-1214 1034-1698C2360 589 3261 149 4318 23c209-25 736-25 947 0 417 50 781 140 1145 284 1493 590 2550 1943 2760 3533 115 871-34 1758-429 2550-246 492-591 946-996 1308-691 619-1517 992-2450 1108-185 23-731 28-925 8zm760-274c538-41 1127-214 1605-472 390-210 660-411 981-732 267-267 447-497 627-796 560-935 726-2055 462-3128-155-633-471-1233-911-1732C7268 970 6415 495 5480 336c-257-43-357-51-700-50-279 0-349 3-495 23-657 87-1228 297-1765 649C1298 1757 583 3163 660 4615c11 217 29 377 61 550 192 1037 761 1946 1614 2580 603 449 1354 732 2102 794 145 12 538 12 693 1z"/><path d="M4652 6388l3-1023 173-3 172-2v2050h-350l2-1022zM4577 4748c-46-62-498-680-1004-1373s-950-1301-986-1351c-37-50-67-94-67-98 0-3 98-6 218-6l217 1 277 387c1206 1684 1589 2217 1595 2219 5 2 438-584 963-1302l955-1304 198-1c108 0 197 3 197 8 0 4-481 664-1068 1467L5004 4855l-172 3-172 2-83-112z"/></svg>