<svg xmlns="http://www.w3.org/2000/svg" width="157.167" height="162.167" viewBox="0 0 157.167 162.167"><path fill="#FF5B01" d="M80 149.667c38.601 0 70-31.402 70-70.001s-31.399-70-70-70c-38.6 0-70 31.401-70 70s31.401 70.001 70 70.001m0 1.999c-39.766 0-72-32.233-72-72 0-39.764 32.234-72 72-72 39.767 0 72 32.235 72 72 0 39.764-32.234 72-72 72z"/><path d="M70.2 79.493a3.276 3.276 0 0 1-.736 1.071 3.572 3.572 0 0 1-1.097.723 3.411 3.411 0 0 1-1.345.264h-1.839v3.359h-1.92V74.83h3.76c.481 0 .929.087 1.345.263.416.176.781.416 1.097.72a3.3 3.3 0 0 1 .999 2.376 3.307 3.307 0 0 1-.264 1.304zm-1.784-1.88a1.678 1.678 0 0 0-.815-.815 1.332 1.332 0 0 0-.577-.128h-1.839v3.041h1.839c.203 0 .396-.043.577-.129s.341-.196.479-.336c.138-.139.25-.299.336-.479a1.361 1.361 0 0 0 0-1.154zm3.568 7.297V74.83h1.919v8.238h4.722v1.842h-6.641zm14.078 0l-.723-2.08H81.5l-.719 2.08h-2l3.76-10.08h1.76l3.762 10.08h-2.001zm-2.639-7.521l-1.278 3.684h2.562l-1.284-3.684zm9.119 3.681v3.839h-1.92V81.07l-3.358-6.24h2.079l2.24 4.319 2.24-4.319h2.078l-3.359 6.24z"/></svg>