<svg xmlns="http://www.w3.org/2000/svg" xmlns:xlink="http://www.w3.org/1999/xlink" width="26.879" height="63.835" viewBox="0 0 26.879 63.835"><defs><path id="a" d="M20.035 53.103l-5.306 5.763-1.471 1.597-1.471-1.597-5.305-5.763a1 1 0 1 1 1.471-1.354l5.306 5.762 5.306-5.762a1.001 1.001 0 0 1 1.413-.059c.405.374.431 1.008.057 1.413z"/></defs><use xlink:href="#a" overflow="visible"/><defs><path id="b" d="M14.259 44.351V57.35h-2V44.351h2z"/></defs><use xlink:href="#b" overflow="visible"/><defs><path id="c" d="M16.041 5.895a1.771 1.771 0 0 1-.932.956 1.642 1.642 0 0 1-.677.141c-.198 0-.373-.036-.524-.106a1.894 1.894 0 0 1-.375-.222 1.49 1.49 0 0 1-.303-.323 1.757 1.757 0 0 1-.36.449 2.065 2.065 0 0 1-.479.311 1.627 1.627 0 0 1-.708.139c-.24 0-.468-.05-.685-.148-.217-.1-.407-.24-.571-.419a2.095 2.095 0 0 1-.545-1.43V2.695h6.299v2.5c.001.246-.046.48-.14.7zm-3.258-2.253h-2.001v1.601a1.083 1.083 0 0 0 .294.751.993.993 0 0 0 .705.299.971.971 0 0 0 .705-.299 1.085 1.085 0 0 0 .296-.751V3.642h.001zm2.499 0h-1.699v1.553c0 .254.085.466.255.64a.809.809 0 0 0 1.191-.003.872.872 0 0 0 .254-.636V3.642h-.001zm.9 11.55v.952h-6.3v-.952h2.749v-2.901H9.882v-.947h6.299v.947h-2.648v2.901h2.649zm0 10.251h-6.3v-.953h4.501l-4.501-3.05v-.797h6.299v.948h-4.499l4.499 3.051v.801h.001zm-.096 7.023a2.1 2.1 0 0 1-.389.649 1.76 1.76 0 0 1-.56.424 1.475 1.475 0 0 1-.655.151c-.229 0-.425-.042-.587-.126s-.298-.177-.406-.273a1.98 1.98 0 0 1-.307-.4 1.864 1.864 0 0 1-.342.497c-.12.128-.281.243-.481.347-.2.104-.443.157-.73.157-.24 0-.468-.053-.684-.157a1.77 1.77 0 0 1-.569-.441 2.22 2.22 0 0 1-.395-.691c-.1-.27-.15-.574-.15-.913 0-.324.047-.618.141-.878a1.899 1.899 0 0 1 .981-1.116 2.25 2.25 0 0 1 .729-.207v.952a1.236 1.236 0 0 0-.71.398c-.193.214-.29.498-.29.852 0 .401.097.709.29.926a.916.916 0 0 0 .71.324c.281 0 .517-.107.708-.324s.289-.524.289-.926v-.498h.854v.45c0 .354.088.625.259.815a.84.84 0 0 0 .641.282c.28 0 .508-.095.683-.285.177-.19.264-.462.264-.812 0-.326-.09-.584-.272-.774s-.423-.301-.723-.329v-.95a1.942 1.942 0 0 1 1.318.595c.166.176.295.389.389.635.092.248.139.521.139.821a2.335 2.335 0 0 1-.145.825z"/></defs><use xlink:href="#c" overflow="visible"/></svg>