<svg version="1.0" xmlns="http://www.w3.org/2000/svg" width="1141" height="845" viewBox="0 0 11410 8450"><g fill="#e6e6e6"><path d="M0 4225C0 1415 3 0 10 0s10 1415 10 4225-3 4225-10 4225S0 7035 0 4225zM2780 4225c0-2810 3-4225 10-4225s10 1415 10 4225-3 4225-10 4225-10-1415-10-4225zM5700 4225c0-2810 3-4225 10-4225s10 1415 10 4225-3 4225-10 4225-10-1415-10-4225zM8620 4225c0-2810 3-4225 10-4225s10 1415 10 4225-3 4225-10 4225-10-1415-10-4225zM11390 4225c0-2810 3-4225 10-4225s10 1415 10 4225-3 4225-10 4225-10-1415-10-4225z"/></g></svg>